<svg width="236" height="42" viewBox="0 0 236 42" fill="none" xmlns="http://www.w3.org/2000/svg">
<path d="M27.23 2.5H34.38V41H27.23V2.5ZM7.32 41H0.17V2.5H7.32V41ZM27.78 24.5H6.715V18.395H27.78V24.5ZM175.039 41V2.5H182.409L198.799 29.67H194.894L211.009 2.5H218.324L218.434 41H210.074L210.019 15.315H211.559L198.689 36.93H194.674L181.529 15.315H183.399V41H175.039Z" fill="#00CAF7"/>
<path d="M63.4514 41V34.455L63.3414 33.465V22.685C63.3414 20.0083 62.608 17.9733 61.1414 16.58C59.7114 15.1867 57.603 14.49 54.8164 14.49C52.8364 14.49 50.9847 14.8383 49.2614 15.535C47.5747 16.195 46.1264 17.0567 44.9164 18.12L43.5414 16.14C44.9714 14.8567 46.6947 13.8667 48.7114 13.17C50.728 12.4367 52.8364 12.07 55.0364 12.07C58.593 12.07 61.3247 12.9683 63.2314 14.765C65.138 16.5617 66.0914 19.2383 66.0914 22.795V41H63.4514ZM53.1114 41.22C50.9847 41.22 49.133 40.89 47.5564 40.23C46.0164 39.5333 44.8247 38.5617 43.9814 37.315C43.1747 36.0683 42.7714 34.6383 42.7714 33.025C42.7714 31.5583 43.1014 30.2383 43.7614 29.065C44.458 27.855 45.5947 26.8833 47.1714 26.15C48.748 25.38 50.8564 24.995 53.4964 24.995H64.0564V27.14H53.5514C50.5814 27.14 48.4914 27.69 47.2814 28.79C46.108 29.89 45.5214 31.265 45.5214 32.915C45.5214 34.7483 46.218 36.215 47.6114 37.315C49.0047 38.415 50.9664 38.965 53.4964 38.965C55.9164 38.965 57.9514 38.415 59.6014 37.315C61.288 36.215 62.5347 34.62 63.3414 32.53L64.1114 34.4C63.3414 36.49 62.0214 38.1583 60.1514 39.405C58.318 40.615 55.9714 41.22 53.1114 41.22ZM77.4218 41V12.29H80.0618V20.155L79.7868 19.275C80.5935 16.965 81.9501 15.1867 83.8568 13.94C85.7635 12.6933 88.1468 12.07 91.0068 12.07V14.765C90.8968 14.765 90.7868 14.765 90.6768 14.765C90.5668 14.7283 90.4568 14.71 90.3468 14.71C87.1568 14.71 84.6635 15.7183 82.8668 17.735C81.0701 19.715 80.1718 22.4833 80.1718 26.04V41H77.4218ZM106.166 41.22C103.783 41.22 101.546 40.8717 99.4562 40.175C97.4028 39.4783 95.8078 38.5983 94.6712 37.535L95.9362 35.335C97.0362 36.2883 98.5028 37.1133 100.336 37.81C102.17 38.47 104.15 38.8 106.276 38.8C109.283 38.8 111.446 38.305 112.766 37.315C114.086 36.325 114.746 35.0233 114.746 33.41C114.746 32.2367 114.398 31.32 113.701 30.66C113.041 29.9633 112.143 29.4317 111.006 29.065C109.87 28.6983 108.623 28.405 107.266 28.185C105.91 27.9283 104.553 27.6533 103.196 27.36C101.84 27.0667 100.593 26.645 99.4562 26.095C98.3195 25.545 97.4028 24.7933 96.7062 23.84C96.0462 22.85 95.7162 21.5483 95.7162 19.935C95.7162 18.4683 96.1195 17.1483 96.9262 15.975C97.7328 14.8017 98.9428 13.8667 100.556 13.17C102.17 12.4367 104.186 12.07 106.606 12.07C108.403 12.07 110.2 12.3267 111.996 12.84C113.83 13.3533 115.315 14.0317 116.451 14.875L115.186 17.075C113.976 16.1583 112.62 15.4983 111.116 15.095C109.613 14.6917 108.091 14.49 106.551 14.49C103.765 14.49 101.711 15.0033 100.391 16.03C99.1078 17.0567 98.4662 18.34 98.4662 19.88C98.4662 21.09 98.7962 22.0617 99.4562 22.795C100.153 23.4917 101.07 24.0417 102.206 24.445C103.343 24.8117 104.59 25.1233 105.946 25.38C107.303 25.6 108.66 25.8567 110.016 26.15C111.373 26.4433 112.62 26.865 113.756 27.415C114.893 27.9283 115.791 28.6617 116.451 29.615C117.148 30.5317 117.496 31.7783 117.496 33.355C117.496 34.9317 117.056 36.3067 116.176 37.48C115.333 38.6533 114.068 39.57 112.381 40.23C110.695 40.89 108.623 41.22 106.166 41.22ZM139.196 12.07C141.542 12.07 143.577 12.5283 145.301 13.445C147.061 14.325 148.417 15.6817 149.371 17.515C150.361 19.3117 150.856 21.5483 150.856 24.225V41H148.106V24.445C148.106 21.2183 147.281 18.7617 145.631 17.075C144.017 15.3883 141.744 14.545 138.811 14.545C136.574 14.545 134.631 15.0033 132.981 15.92C131.331 16.8367 130.066 18.12 129.186 19.77C128.342 21.42 127.921 23.4 127.921 25.71V41H125.171V0.189998H127.921V20.265L127.426 19.385C128.306 17.1117 129.754 15.3333 131.771 14.05C133.787 12.73 136.262 12.07 139.196 12.07ZM230.208 41.44C228.741 41.44 227.476 40.945 226.413 39.955C225.386 38.9283 224.873 37.6267 224.873 36.05C224.873 34.4733 225.386 33.2083 226.413 32.255C227.476 31.265 228.741 30.77 230.208 30.77C231.711 30.77 232.976 31.265 234.003 32.255C235.03 33.2083 235.543 34.4733 235.543 36.05C235.543 37.6267 235.03 38.9283 234.003 39.955C232.976 40.945 231.711 41.44 230.208 41.44Z" fill="white"/>
</svg>
